<?xml version="1.0" encoding="utf-8"?>
<!-- Generator: Adobe Illustrator 22.0.1, SVG Export Plug-In . SVG Version: 6.00 Build 0)  -->
<svg version="1.1" id="Calque_1" xmlns="http://www.w3.org/2000/svg" xmlns:xlink="http://www.w3.org/1999/xlink" x="0px" y="0px"
	 viewBox="0 0 512 512" style="enable-background:new 0 0 512 512;" xml:space="preserve">
<style type="text/css">
	.st0{fill:#FFAB00;}
</style>
<g id="Edges">
</g>
<g id="Symbol">
	<g>
		<path class="st0" d="M89.4,13.4C72.5,20,58.2,28.8,43.9,43c-14.3,14.2-23,28.5-29.6,45.3C8,104.6,3.7,123.3,2.5,150.6
			s-1.6,36-1.6,105.6s0.3,78.3,1.6,105.6s5.6,45.9,11.9,62.2c6.6,16.9,15.3,31.2,29.6,45.4c14.3,14.3,28.5,23,45.4,29.6
			c16.3,6.4,34.9,10.6,62.2,11.9s36,1.6,105.6,1.6s78.3-0.3,105.6-1.6c27.3-1.3,45.9-5.6,62.2-11.9c16.9-6.6,31.2-15.3,45.4-29.6
			c14.3-14.3,23-28.5,29.6-45.4c6.4-16.3,10.6-34.9,11.9-62.2c1.3-27.3,1.6-36,1.6-105.6s-0.3-78.3-1.6-105.6s-5.6-45.9-11.9-62.2
			c-6.6-16.8-15.3-31.2-29.5-45.3c-14.3-14.3-28.5-23-45.4-29.6C408.9,7.1,390.2,2.8,363,1.6C335.7,0.3,326.9,0,257.3,0
			S179,0.3,151.7,1.6C124.3,2.7,105.6,7.1,89.4,13.4z M360.8,47.6c25,1.1,38.5,5.3,47.6,8.9c12,4.7,20.5,10.2,29.5,19.2
			c9,9,14.5,17.5,19.2,29.5c3.5,9.1,7.7,22.6,8.9,47.6c1.3,27,1.5,35.1,1.5,103.6s-0.3,76.6-1.5,103.6c-1.1,25-5.3,38.5-8.9,47.6
			c-4.7,12-10.2,20.5-19.2,29.5s-17.5,14.5-29.5,19.2c-9.1,3.5-22.6,7.7-47.6,8.9c-27,1.3-35.1,1.5-103.6,1.5s-76.6-0.3-103.6-1.5
			c-25-1.1-38.5-5.3-47.6-8.9c-12-4.7-20.5-10.2-29.5-19.2c-9-9-14.5-17.5-19.2-29.5c-3.5-9.1-7.7-22.6-8.9-47.6
			c-1.3-27-1.5-35.1-1.5-103.6s0.3-76.6,1.5-103.6c1.1-25,5.3-38.5,8.9-47.6c4.7-12,10.2-20.5,19.2-29.5c9-9,17.5-14.5,29.5-19.2
			c9.1-3.5,22.6-7.7,47.6-8.9c27-1.3,35.1-1.5,103.6-1.5S333.8,46.4,360.8,47.6z"/>
		<path class="st0" d="M125.6,256.3c0,72.7,59,131.6,131.6,131.6s131.6-59,131.6-131.6s-58.9-131.6-131.6-131.6
			S125.6,183.6,125.6,256.3z M342.6,256.3c0,47.2-38.2,85.4-85.4,85.4s-85.4-38.2-85.4-85.4s38.2-85.4,85.4-85.4
			S342.6,209.1,342.6,256.3z"/>
		<circle class="st0" cx="394.1" cy="119.5" r="30.7"/>
	</g>
</g>
</svg>
